<?xml version="1.0" encoding="UTF-8"?>
<svg width="103px" height="118px" viewBox="0 0 103 118" version="1.1" xmlns="http://www.w3.org/2000/svg" xmlns:xlink="http://www.w3.org/1999/xlink">
    <!-- Generator: Sketch 57.1 (83088) - https://sketch.com -->
    <title>security-training-icon</title>
    <desc>Created with Sketch.</desc>
    <g id="Page-1" stroke="none" stroke-width="1" fill="none" fill-rule="evenodd">
        <g id="security-training-icon" fill-rule="nonzero">
            <g id="Group" transform="translate(43.439868, 0.000000)" fill="#06AC38">
                <path d="M43.12384,28.6954019 C35.1285943,33.624467 29.3658685,39.8496138 27.0261018,42.616146 L21.0184959,37.8830211 C20.8594132,37.7679736 17.5615754,40.7124699 17.6491603,40.8041483 L28.590117,51.9907174 C28.670552,52.0823958 28.7813737,52.123741 28.9011326,52.123741 C28.9225819,52.123741 28.9565434,52.123741 28.9851425,52.1165505 C29.1281382,52.0841934 29.2496845,51.9871221 29.3033079,51.8433128 C31.0657296,47.311521 36.8856536,37.8236997 44.3178539,30.9424228 C44.4501249,30.8165896 44.4965985,30.6188518 44.4233132,30.4480782 C44.4215258,30.4462806 43.2346617,28.6270924 43.12384,28.6954019 L43.12384,28.6954019 Z" id="Path"></path>
                <path d="M58.3883074,9.7350604 C34.8807994,9.7350604 30.9036984,0.82096813 30.8681886,0.73735101 C30.6957122,0.30152842 30.2695943,0.01013541 29.7876751,-6.66133815e-16 C29.7876751,-6.66133815e-16 29.7775295,-6.66133815e-16 29.7673838,-6.66133815e-16 C29.3006832,-6.66133815e-16 28.8694924,0.29139301 28.6817976,0.71708019 C28.653897,0.81083273 24.5905578,9.7350604 1.17182441,9.7350604 C0.51742896,9.7350604 2.88657986e-15,10.2646355 2.88657986e-15,10.9031663 L2.88657986e-15,50.8468134 C2.88657986e-15,67.1977621 28.1136403,79.6896537 29.3032196,80.2141611 C29.4604774,80.2825751 29.610126,80.3079137 29.7800659,80.3079137 C29.9347873,80.3079137 30.1021908,80.2825751 30.2518394,80.2141611 C31.4515644,79.6896537 59.5601318,67.1977621 59.5601318,50.8468134 L59.5601318,10.9031663 C59.555059,10.2646355 59.0350936,9.7350604 58.3883074,9.7350604 Z M53.0922698,48.5232709 C53.0922698,61.3166909 31.0812476,71.1049622 30.1453099,71.5103786 C30.0311711,71.5686572 29.8967411,71.588928 29.7775295,71.588928 C29.6481722,71.588928 29.5289607,71.5686572 29.4072127,71.5103786 C28.4814207,71.1049622 6.46278919,61.3166909 6.46278919,48.5232709 L6.46278919,17.2580678 C6.46278919,16.7538312 6.87115225,16.3382794 7.38097196,16.3382794 C25.7167267,16.3382794 28.8948565,9.35498256 28.9252935,9.28656855 C29.0698693,8.9495662 29.4046763,8.72151949 29.7724566,8.72151949 L29.7876751,8.72151949 C30.1630648,8.7265872 30.4953353,8.9546339 30.6297654,9.30177166 C30.6602024,9.36511797 33.7749219,16.3382794 52.174087,16.3382794 C52.6839067,16.3382794 53.0897334,16.7538312 53.0897334,17.2580678 L53.0922698,48.5232709 Z" id="Shape"></path>
            </g>
            <polygon id="Path" fill="#FFFFFF" points="12.4528681 83.0294665 9.50170815 74.5402579 15.952401 67.3827437 15.952401 109.477092 17.3699449 113.899966 20.5678726 116.466906 35.2313632 116.466906 35.2313632 67.3827437 48.7807428 60.1620235 58.9338665 49.2545842 54.3819147 44.7201438 42.8574019 54.4968308 31.2296122 59.3156739 12.4528681 59.3156739 1.91542648 71.7585221 6.71277513 86.2722064"></polygon>
            <g id="Group" transform="translate(0.000000, 5.602878)" fill="#343434">
                <path d="M48.9516148,56.0449786 L60.110765,44.8681162 C60.7340833,44.2438086 60.7340833,43.2346976 60.110765,42.61039 L55.3282721,37.8203061 C54.7384313,37.2295291 53.794686,37.1944018 53.1633969,37.737278 L42.1891698,47.1577763 L31.5560938,51.7227263 L12.7529256,51.7227263 C12.2922121,51.7227263 11.8570053,51.9207164 11.5541141,52.2687958 L0.39496384,65.0423529 C0.02192939,65.4686704 -0.09763293,66.0610441 0.08250764,66.5991302 L4.86500059,80.9693819 C5.01166371,81.4068762 5.34006156,81.7613424 5.76729759,81.9385755 C6.19453363,82.1126152 6.67437709,82.098245 7.09045398,81.8922714 L13.4671112,78.6988821 C14.0123154,78.4258473 14.34709,77.878181 14.34709,77.3001776 L14.34709,104.413649 C14.34709,108.815736 17.9228005,112.397122 22.3179115,112.397122 L35.0712261,112.397122 C35.9512048,112.397122 36.6653904,111.6834 36.6653904,110.800428 L36.6653904,62.2896513 L48.5371321,56.3435605 C48.691766,56.2685159 48.8304583,56.1663274 48.9516148,56.0449786 Z M14.34709,77.2379065 C14.34709,77.0494965 14.3072358,76.8610866 14.2339043,76.67587 L11.3899151,69.5578053 L14.34709,65.8550705 L14.34709,77.2379065 Z M34.3586346,59.8738524 C33.8182129,60.1452905 33.4770618,60.6977468 33.4770618,61.3028941 L33.4770618,109.203733 L27.1004045,109.203733 L27.1004045,88.7501441 C27.1004045,87.867172 26.3862189,87.1534495 25.5062402,87.1534495 C24.6262615,87.1534495 23.9120759,87.867172 23.9120759,88.7501441 L23.9120759,109.203733 L22.3179115,109.203733 C19.6811638,109.203733 17.5354186,107.054582 17.5354186,104.413649 L17.5354186,61.3028941 C17.5354186,60.6242988 17.1081825,60.0207483 16.4689227,59.797211 C15.8312569,59.5720771 15.1186655,59.776454 14.6962119,60.3049599 L8.31955467,68.2884331 C7.96086769,68.7371043 7.87159449,69.3454449 8.08361835,69.8787409 L10.728337,76.4986369 L7.30726032,78.2118902 L3.39518109,66.4570243 L13.4766762,54.9161155 L31.8828974,54.9161155 C32.0981096,54.9161155 32.3133218,54.8730048 32.5109982,54.7867833 L43.6701484,49.9966994 C43.8184057,49.9328316 43.957098,49.8466101 44.0798486,49.7412282 L54.1183014,41.125464 L56.7295425,43.7392531 L46.8807953,53.6036325 L34.3586346,59.8738524 Z" id="Shape"></path>
                <path d="M102.490939,90.0535252 C102.490939,84.7724564 98.195785,80.4776978 92.9142298,80.4776978 C89.5847272,80.4776978 86.651062,82.186983 84.9336388,84.7708604 C83.2162156,82.1853871 80.2825504,80.4776978 76.9530478,80.4776978 C73.6235452,80.4776978 70.6898799,82.186983 68.9724568,84.7708604 C67.2550336,82.1853871 64.3213683,80.4776978 60.9918657,80.4776978 C55.7103106,80.4776978 51.4151565,84.7724564 51.4151565,90.0535252 C51.4151565,93.3827212 53.1245991,96.3161163 55.7087145,98.0333813 C53.123003,99.7506463 51.4151565,102.684041 51.4151565,106.013237 L51.4151565,112.397122 L54.6073929,112.397122 L54.6073929,106.013237 C54.6073929,102.492525 57.470829,99.6293525 60.9918657,99.6293525 C64.5129025,99.6293525 67.3763386,102.492525 67.3763386,106.013237 L67.3763386,112.397122 L70.568575,112.397122 L70.568575,106.013237 C70.568575,102.492525 73.432011,99.6293525 76.9530478,99.6293525 C80.4740845,99.6293525 83.3375206,102.492525 83.3375206,106.013237 L83.3375206,112.397122 L86.529757,112.397122 L86.529757,106.013237 C86.529757,102.492525 89.3931931,99.6293525 92.9142298,99.6293525 C96.4352666,99.6293525 99.2987026,102.492525 99.2987026,106.013237 L99.2987026,112.397122 L102.490939,112.397122 L102.490939,106.013237 C102.490939,102.684041 100.781496,99.7506463 98.1973811,98.0333813 C100.781496,96.3161163 102.490939,93.3827212 102.490939,90.0535252 L102.490939,90.0535252 Z M76.9530478,83.6696403 C80.4740845,83.6696403 83.3375206,86.5328127 83.3375206,90.0535252 C83.3375206,93.5742377 80.4740845,96.4374101 76.9530478,96.4374101 C73.432011,96.4374101 70.568575,93.5742377 70.568575,90.0535252 C70.568575,86.5328127 73.4336071,83.6696403 76.9530478,83.6696403 Z M54.6073929,90.0535252 C54.6073929,86.5328127 57.470829,83.6696403 60.9918657,83.6696403 C64.5129025,83.6696403 67.3763386,86.5328127 67.3763386,90.0535252 C67.3763386,93.5742377 64.5129025,96.4374101 60.9918657,96.4374101 C57.470829,96.4374101 54.6073929,93.5742377 54.6073929,90.0535252 L54.6073929,90.0535252 Z M68.9724568,100.730573 C68.2621842,99.6612719 67.3444162,98.7435885 66.275017,98.0333813 C67.3444162,97.3231741 68.2621842,96.4054906 68.9724568,95.3361899 C69.6827294,96.4054906 70.6004973,97.3231741 71.6698965,98.0333813 C70.6004973,98.7435885 69.6827294,99.6612719 68.9724568,100.730573 Z M84.9336388,100.730573 C84.2233662,99.6612719 83.3055982,98.7435885 82.236199,98.0333813 C83.3055982,97.3231741 84.2233662,96.4054906 84.9336388,95.3361899 C85.6439114,96.4054906 86.5616794,97.3231741 87.6310786,98.0333813 C86.5616794,98.7435885 85.6439114,99.6612719 84.9336388,100.730573 Z M92.9142298,96.4374101 C89.3931931,96.4374101 86.529757,93.5742377 86.529757,90.0535252 C86.529757,86.5328127 89.3931931,83.6696403 92.9142298,83.6696403 C96.4352666,83.6696403 99.2987026,86.5328127 99.2987026,90.0535252 C99.2987026,93.5742377 96.4352666,96.4374101 92.9142298,96.4374101 Z" id="Shape"></path>
                <path d="M6.3183448,16.008222 L7.11687179,16.008222 L11.4289175,21.7711819 C11.7371489,22.1809924 12.213071,22.4115108 12.7065607,22.4115108 C12.8742514,22.4115108 13.0451362,22.3842968 13.2112298,22.328268 C13.8644248,22.1105562 14.3036147,21.500643 14.3036147,20.8106886 L14.3036147,16.008222 L23.8859386,16.008222 C26.5274658,16.008222 28.6771005,13.8535153 28.6771005,11.2057554 L28.6771005,4.8024666 C28.6771005,2.15470668 26.5274658,4.4408921e-15 23.8859386,4.4408921e-15 L6.3183448,4.4408921e-15 C3.67681752,4.4408921e-15 1.52718287,2.15470668 1.52718287,4.8024666 L1.52718287,11.2057554 C1.52718287,13.8535153 3.67681752,16.008222 6.3183448,16.008222 Z M4.72129082,4.8024666 C4.72129082,3.91881274 5.43836806,3.2016444 6.3183448,3.2016444 L23.8859386,3.2016444 C24.7659153,3.2016444 25.4829925,3.91881274 25.4829925,4.8024666 L25.4829925,11.2057554 C25.4829925,12.0894092 24.7659153,12.8065776 23.8859386,12.8065776 L12.7065607,12.8065776 C11.8249869,12.8065776 11.1095067,13.5221451 11.1095067,14.4073998 L11.1095067,16.008222 L9.19304196,13.4469065 C8.89119876,13.0434993 8.41847078,12.8065776 7.91539878,12.8065776 L6.3183448,12.8065776 C5.43836806,12.8065776 4.72129082,12.0894092 4.72129082,11.2057554 L4.72129082,4.8024666 Z" id="Shape"></path>
                <polygon id="Path" points="9.84184514 6.79136691 20.5321252 6.79136691 20.5321252 9.16834532 9.84184514 9.16834532"></polygon>
            </g>
            <g id="Group" transform="translate(12.065898, 29.391367)">
                <polygon id="Path" fill="#FFFFFF" points="2.91904721 16.0766194 2.91904721 10.6047036 6.22337134 4.56877077 12.5521418 1.50935252 15.8738564 2.29680174 19.2918979 4.05612693 21.9022338 6.55071278 23.2979544 9.45302173 23.5757942 12.2578849 23.5757942 16.0766194 24.9258649 19.3415301 24.103622 20.6742411 21.5178773 21.6069756 20.3274457 24.8142614 17.94699 27.3308643 15.109627 28.8446043 11.957877 28.8446043 8.29174971 27.0037345 6.22337134 24.1839215 5.59147251 21.6069756 3.29267047 20.6742411 1.50906096 18.6676998"></polygon>
                <path d="M18.9350167,28.3444823 C17.4191538,29.5273752 15.5736117,30.1179856 13.4134319,30.1179856 C11.2604336,30.1179856 9.40899015,29.577392 7.86534252,28.4893824 C5.96911121,27.1034186 4.6981493,25.0350797 4.30882655,22.7123229 C3.47699506,22.5903824 2.71048042,22.2421866 2.07372806,21.6910167 C1.1216137,20.867138 0.57578254,19.6686311 0.57578254,18.4031271 C0.57578254,17.4452482 0.90626558,16.5340099 1.52062411,15.7795808 L1.52062411,12.4292478 C1.52062411,5.89329452 6.80481643,0.57553957 13.302001,0.57553957 C19.7991645,0.57553957 25.0833733,5.89327159 25.0835,12.4292478 L25.0835,15.6926404 C25.6937129,16.4590182 26.0288303,17.4132929 26.0288303,18.40325 C26.0288303,19.6682899 25.4828272,20.8669427 24.5308868,21.690769 C23.8934229,22.2423831 23.1262387,22.5908557 22.2940501,22.7126825 C21.9151361,24.9509079 20.7102197,26.9551593 18.9350167,28.3444823 Z M21.5026453,22.2708278 L21.5478243,21.9272798 L21.8932701,21.9028019 C22.6748664,21.847419 23.3917223,21.5541647 23.9758772,21.0486802 C24.7411887,20.3863659 25.1803954,19.4221657 25.1803954,18.40325 C25.1803954,17.5624018 24.8804882,16.7542817 24.3375228,16.1219899 L24.2350651,16.0026763 L24.2350651,12.429256 C24.2349474,6.36103452 19.3294938,1.42446043 13.302001,1.42446043 C7.27449134,1.42446043 2.36905903,6.36104967 2.36905903,12.4292478 L2.36905903,16.0946797 L2.26373737,16.2148034 C1.7163683,16.8391006 1.42421746,17.5999578 1.42421746,18.4031271 C1.42421746,19.422521 1.86326121,20.3865497 2.62876823,21.0489543 C3.21230086,21.5540575 3.92861399,21.847053 4.71018897,21.9025609 L5.05605204,21.9271242 L5.10082028,22.2711521 C5.39056561,24.4977413 6.56762932,26.489583 8.35986509,27.7996141 C9.74864002,28.7783953 11.4291014,29.2690647 13.4134319,29.2690647 C15.390466,29.2690647 17.0516624,28.7374855 18.412534,27.6756282 C20.1009687,26.3541134 21.2200686,24.4195844 21.5026453,22.2708278 L21.5026453,22.2708278 Z M22.424308,16.92115 L22.424308,19.886549 C22.5526119,19.8234788 22.6719934,19.7444766 22.780779,19.6503094 C23.1406949,19.3387813 23.3474177,18.8843979 23.3475274,18.4032071 C23.3475112,17.7612624 22.9851574,17.1977783 22.424308,16.92115 L22.424308,16.92115 Z M24.1959623,18.40325 C24.1958152,19.1304175 23.8824461,19.8192344 23.3358686,20.2923289 C22.9779696,20.6021341 22.5440338,20.8025946 22.068602,20.8804432 L21.5758731,20.9611241 L21.5758731,15.8458931 L22.0684794,15.9264057 C23.3114155,16.1295538 24.1959623,17.1728833 24.1959623,18.40325 Z M4.18018268,17.0023785 C3.62815278,17.3021889 3.2569633,17.8341626 3.2569633,18.4031271 C3.2569633,19.0454724 3.61746331,19.6095337 4.18018268,19.8862068 L4.18018268,17.0023785 Z M4.53605434,20.8804703 C3.2876721,20.6765641 2.40852837,19.6318926 2.40852837,18.4031271 C2.40852837,17.2471064 3.31982266,16.2546669 4.50835028,15.9782316 L5.02861761,15.8572245 L5.02861761,20.9609238 L4.53605434,20.8804703 Z M6.38352177,12.8539265 C9.88320006,13.106839 13.6854105,12.0769863 16.8006306,10.0291245 C17.6387032,9.47810188 18.7497268,9.61911103 19.4266724,10.3510398 C19.9024054,10.8657415 21.0709169,12.1184463 21.0973413,12.1469436 C21.5571467,12.6428192 21.8008979,12.9170493 21.9764643,13.1413622 C22.2491759,13.4897931 22.3606096,13.7067446 22.4021971,14.0285621 L22.4021971,12.4292478 C22.4021971,7.37802904 18.3190565,3.26894255 13.3021232,3.26894255 C8.28518985,3.26894255 4.20204924,7.37802904 4.20204924,12.4292478 L4.20204924,14.1573855 C4.24568956,14.148239 4.28932142,14.1396839 4.33265782,14.1317927 C4.66440928,13.3146218 5.48807232,12.7864557 6.38352177,12.8539265 Z M22.4021971,14.4870608 L22.4244302,14.4870608 C22.4244302,14.3444925 22.4210719,14.2224625 22.4113606,14.113229 C22.4083069,14.1126987 22.4052524,14.1121716 22.4021971,14.1116475 L22.4021971,14.4870608 Z M4.70225233,14.9341772 C4.45277316,14.9629719 4.1481099,15.0329815 3.91510365,15.1127125 L3.35361431,15.3048452 L3.35361431,12.4292478 C3.35361431,6.91027443 7.81551439,2.42002168 13.3021232,2.42002168 C18.7887319,2.42002168 23.250632,6.91027443 23.250632,12.4292478 L23.250632,15.2214734 L22.7023298,15.0536625 C22.4638047,14.9806605 22.2164726,14.9325247 21.9624944,14.9098401 L21.5759952,14.8753191 L21.5759952,14.4870608 C21.5759952,14.036942 21.5626309,13.9894835 21.3084877,13.6647766 C21.1523198,13.4652482 20.919159,13.2029328 20.4753717,12.7243318 C20.4502836,12.6972757 19.2811402,11.4438933 18.803872,10.9275308 C18.4075189,10.498985 17.7566172,10.4163737 17.2665284,10.7386012 C13.9978207,12.8873616 10.0110296,13.9672091 6.32110702,13.7005462 C5.73973349,13.6567417 5.20837392,14.0431103 5.0651613,14.6155797 L4.99387934,14.9005179 L4.70225233,14.9341772 Z M6.86148563,15.5753551 L6.86148563,21.1876176 C6.86148563,24.681901 9.65816333,27.5596207 13.4134319,27.5596207 C16.8990443,27.5596207 19.7431272,24.6974446 19.7431272,21.1874946 L19.7431272,14.6492818 C19.6269078,14.5162502 19.4382197,14.3102064 19.1289174,13.9773587 C19.0461017,13.8882388 18.9565032,13.7919951 18.8226,13.6482814 C18.7383125,13.557825 18.7383125,13.557825 18.6495665,13.4625877 C18.5585783,13.3649358 18.5203618,13.3239139 18.4630789,13.2624049 C18.2316756,13.0139299 18.0254245,12.7920866 17.8190365,12.569528 C14.5281775,14.6067664 10.5992679,15.6969429 6.86148563,15.5753551 Z M6.0130507,21.1876176 L6.0130507,14.6809137 L6.46221179,14.7073849 C10.263717,14.9314259 14.3281723,13.813395 17.6608706,11.6655388 L17.9600468,11.4727258 L18.2018415,11.7339807 C18.4922909,12.047806 18.7639213,12.3401954 19.0837978,12.6836708 C19.1410206,12.7451151 19.1791925,12.7860893 19.2701286,12.8836852 C19.3588516,12.9788978 19.3588516,12.9788978 19.4431818,13.0694002 C19.5773213,13.2133674 19.6671354,13.3098426 19.7502663,13.3993019 C20.1800039,13.8617528 20.3820718,14.0846632 20.4969139,14.2264433 L20.5915621,14.343293 L20.5915621,21.1874946 C20.5915621,25.1651978 17.3687212,28.4085415 13.4134444,28.4085415 C9.18419,28.4085415 6.0130507,25.1455083 6.0130507,21.1876176 L6.0130507,21.1876176 Z" id="Shape" fill="#343434"></path>
            </g>
            <g id="Group" transform="translate(13.000000, 30.000000)" fill="#343434">
                <path d="M21.8955004,28.0432859 C22.0954987,28.2194729 22.2100498,28.4729746 22.2100498,28.739389 L22.2100498,32.7689374 C22.2100498,33.1331057 21.9970768,33.463557 21.6656081,33.6139057 L16.4161973,35.9972567 C16.3764536,36.0756015 16.3327901,36.1616225 16.2860968,36.2535498 C16.1378139,36.5454813 15.9892328,36.8374212 15.8501171,37.1099541 C15.5305388,37.7359509 15.3691188,38.0520698 15.2775115,38.2236466 L18.6537394,52.1955904 C18.7258788,52.4946484 18.6451809,52.8097396 18.438018,53.0379578 L13.3942441,58.5789156 C13.2180731,58.7720455 12.9689042,58.8820147 12.7075787,58.8820147 C12.4461021,58.8820147 12.1967585,58.7719151 12.0208599,58.5785869 L6.97730079,53.0378647 C6.77009194,52.8100947 6.68923049,52.4948476 6.76146041,52.1954143 L10.2224905,37.8743054 L9.04506066,36.0176386 L3.74949085,33.6138792 C3.41819018,33.4634007 3.20510749,33.1329774 3.20510749,32.7689374 L3.20510749,28.739389 C3.20510749,28.473192 3.3197229,28.2198162 3.51970493,28.0432436 C3.71929693,27.8674679 3.98482425,27.785678 4.24872997,27.8186799 L12.2608614,28.8186221 L13.154296,28.8186221 L21.1663837,27.8186854 C21.4303728,27.7856902 21.6958753,27.8674811 21.8955004,28.0432859 Z M14.6594773,37.571599 C14.7680283,37.3619951 14.9137482,37.0779381 15.087383,36.7378191 C15.2333582,36.4518488 15.3816933,36.1603923 15.5297392,35.8689274 C15.5815586,35.7669082 15.6296389,35.672178 15.672757,35.587169 C15.717088,35.499748 15.717088,35.499748 15.7269036,35.4803755 L15.7942849,35.3473891 L15.9299829,35.2857792 L21.3151651,32.840785 C21.3435145,32.8279262 21.3616149,32.7998414 21.3616149,32.7689374 L21.3616149,28.739389 C21.3176594,28.6653103 21.2945299,28.6581857 21.2715436,28.6610602 L13.2070053,29.667543 L12.208152,29.667543 L4.14361376,28.6610602 C4.12062745,28.6581857 4.09749789,28.6653103 4.08067234,28.6801277 C4.06912194,28.690326 4.06007863,30.0532626 4.05354242,32.7689374 C4.05354242,32.7996951 4.07177547,32.8279687 4.10009963,32.8408337 L9.62592743,35.3491116 L11.1317835,37.7236675 L11.0894705,37.8987506 L7.58617001,52.3947666 C7.58208409,52.411705 9.26942276,54.2824594 12.648186,58.0070297 C12.6632568,58.0235938 12.6847715,58.0330938 12.7075787,58.0330938 C12.7304713,58.0330938 12.7521823,58.0235118 12.7672842,58.0069565 L17.8103626,52.466763 C17.8222998,52.4536125 16.6715209,47.6416201 14.3580261,38.0307858 L14.4867163,37.9005825 C14.5499174,37.7822938 14.5983644,37.6896037 14.6594773,37.571599 L14.6594773,37.571599 Z M5.06223727,32.1712989 L9.21894255,34.0589785 L10.8347913,30.5111464 L5.06223727,29.7909029 L5.06223727,32.1712989 Z M4.21380235,28.8295477 L12.0857179,29.8117293 L9.63969821,35.1823228 L4.21380235,32.7182672 L4.21380235,28.8295477 Z M10.6253197,44.1143357 L13.9803183,40.7636869 L13.4897843,38.7340269 L11.9253887,38.7340269 L10.6253197,44.1143357 Z M14.1575044,37.885106 L14.9170035,41.0276506 L9.09278025,46.8443228 L11.2576373,37.885106 L14.1575044,37.885106 Z M15.7204795,47.9641366 L9.95306723,53.5470976 L12.7075935,56.5746872 L16.7310454,52.1527984 L15.7204795,47.9641366 Z M12.7075638,57.8357264 L8.77160625,53.5095871 L16.1970163,46.3216539 L17.6613977,52.3913211 L12.7075638,57.8357264 Z M14.4902728,42.8773785 L9.7909315,47.5730176 L8.68409854,52.153211 L8.70352002,52.1746106 L15.2138005,45.869505 L14.4902728,42.8773785 Z M8.60523495,52.2697982 L8.63127093,52.3718173 L8.6714128,52.205706 L8.60523495,52.2697982 Z M8.66424213,53.394112 L7.75377304,52.3909085 L9.02239679,47.1412074 L14.959664,41.2086177 L16.152558,46.1417943 L8.66424213,53.394112 Z M14.7047291,35.2679891 L12.7075929,30.8802006 L10.7348312,35.2150333 L11.7888403,36.8777189 L13.8977428,36.8777189 L14.7047291,35.2679891 Z M12.8010105,30.6749301 L12.8871047,30.4857517 L12.8871047,30.4140597 L12.707591,30.3322703 L12.5280527,30.4140822 L12.5280527,30.4857436 L12.6141624,30.6749301 L12.8010105,30.6749301 Z M11.3222767,37.7266398 L9.77229673,35.2815667 L12.2550948,29.8260092 L13.1600469,29.8260092 L15.6450542,35.28567 L14.4213525,37.7266398 L11.3222767,37.7266398 Z M20.35292,32.1712989 L20.35292,29.7909029 L14.580366,30.5111464 L16.1962148,34.0589785 L20.35292,32.1712989 Z M15.7754591,35.1823228 L13.3294395,29.8117293 L21.201355,28.8295477 L21.201355,32.7182671 L15.7754591,35.1823228 Z" id="Shape"></path>
                <polygon id="Path" points="3.5265396 33.2383206 3.5265396 29.656162 4.7143485 29.656162 4.7143485 32.4519142 10.1537195 34.7638974 11.8993978 37.7492852 8.3451137 52.3227283 12.701376 57.0815589 17.1462773 52.3169197 13.72199 37.7579849 15.338127 34.7690413 20.745452 32.4530884 20.745452 29.1881214 21.9332609 29.1881214 21.9332609 33.2371464 16.1859484 35.6987157 14.9817288 37.9258441 18.4480046 52.6633001 12.6931243 58.8321498 7.0408049 52.6574916 10.6315513 37.9345438 9.3271791 35.7038596"></polygon>
                <polygon id="Path" points="9.9618297 35.5411555 9.3348563 35.2810006 11.5247538 29.997299 13.8261275 29.997299 16.0771245 35.2778559 15.4527949 35.5443002 13.3777205 30.6764357 11.9780749 30.6764357"></polygon>
                <polygon id="Path" points="11.2006826 38.1462718 11.2006826 37.4671351 14.2587368 37.4671351 14.2587368 38.1462718"></polygon>
                <polygon id="Path" points="14.9254834 40.6514328 15.4079441 41.1291268 9.0899642 47.5174612 8.6075035 47.0397671"></polygon>
                <polygon id="Path" points="16.1445802 45.9126765 16.611559 46.4055331 8.8099699 53.8059639 8.3429911 53.3131073"></polygon>
                <path d="M16.75371,9.7368493 L17.2552321,9.4787421 L20.9967327,13.3121359 L20.9967327,20.2084153 C20.8672378,21.6270585 20.4449611,23.2279764 19.7307928,25.0522215 C19.1823664,26.4531019 17.8235278,27.4957567 15.9649166,28.271389 C14.8025435,28.7564685 13.3282737,29.1406751 12.9092572,29.1406751 C12.5607973,29.1406751 11.5003669,28.9552671 10.5259157,28.6821608 C9.0326819,28.2636569 7.6830224,27.6621112 6.6210642,26.8413526 C4.9844629,25.5764681 4.0572775,23.9355723 3.8709413,21.9607521 L3.8675608,12.8556706 L4.634761,12.8592986 C7.3021216,12.8719121 9.3207973,12.6968092 10.6741132,12.343172 C12.0373012,11.9869552 14.0714926,11.1172462 16.75371,9.7368493 L16.75371,9.7368493 Z M11.0600122,13.8216413 C9.6957542,14.1781377 7.8114683,14.3639127 5.3947437,14.3858006 L5.3947437,21.8518947 C5.548066,23.3834163 6.2577848,24.6297523 7.5546316,25.6320499 C8.4384785,26.3151511 9.6177889,26.8407719 10.9378349,27.210737 C11.7771546,27.4459705 12.6951739,27.6077851 12.9005102,27.6125112 C12.9316702,27.6038989 12.987411,27.5938685 13.0529135,27.5808479 C13.216477,27.5483346 13.4161119,27.5023265 13.6323348,27.445977 C14.2037615,27.2970586 14.8045387,27.0999976 15.377043,26.8610811 C16.889432,26.2299336 17.9473615,25.4181703 18.3088112,24.4948963 C18.9681157,22.8107934 19.3537139,21.3564507 19.4695499,20.1380721 L19.4695499,13.9345017 L16.9493578,11.3524124 C14.4206202,12.6325017 12.4638399,13.4548048 11.0600122,13.8216413 L11.0600122,13.8216413 Z" id="Shape"></path>
                <path d="M4.782346,13.7767386 L4.9846582,15.4624698 C2.9385727,15.7083111 1.9915636,16.4490335 1.8651517,17.7246169 C1.7436417,18.9507363 2.5876347,19.7782141 4.7421577,20.2752326 L4.3609382,21.9296726 C1.4659139,21.2618307 -0.0438869,19.7815737 0.1765629,17.5570838 C0.3921107,15.382058 2.0201982,14.1086163 4.782346,13.7767386 L4.782346,13.7767386 Z" id="Path"></path>
                <path d="M20.4066998,15.6415166 L20.5066025,13.9466199 C23.1572424,14.1030362 24.6333084,15.5281031 24.6333084,18.0072985 C24.6333084,20.5058811 23.1282064,21.8752903 20.4595394,21.8843802 L20.4537629,20.1865483 C22.2227256,20.180523 22.9364385,19.531155 22.9364385,18.0072985 C22.9364385,16.4640547 22.1936896,15.7469682 20.4066998,15.6415166 L20.4066998,15.6415166 Z" id="Path"></path>
                <path d="M2.7858131,15.6709525 L1.0889433,15.6709525 L1.0889433,10.890196 C1.1633754,9.0159946 2.0582826,6.9335341 3.7448763,4.5854718 C4.9397457,2.9219842 6.4753191,1.8115705 8.2500725,1.1703318 C9.5650417,0.6952184 10.8889421,0.5109742 12.2479976,0.5109742 C14.7229889,0.5109742 17.0238619,1.3096006 19.8800072,3.4417566 C22.1446499,5.1323469 23.4093275,7.839475 23.6943549,11.4964313 L23.6969232,15.6709525 L22.0000533,15.6709525 L22.0000533,11.5958748 C21.7458384,8.41032 20.6942155,6.1678992 18.8652936,4.802581 C16.2961261,2.8846583 14.3489986,2.2088159 12.2479976,2.2088159 C11.0703469,2.2088159 9.9344411,2.3668973 8.8263958,2.7672468 C7.3628901,3.2960281 6.1099114,4.2020901 5.1227913,5.5763508 C3.6184796,7.6706415 2.8492008,9.4555255 2.7858131,10.9079349 L2.7858131,15.6709525 Z" id="Path"></path>
            </g>
        </g>
    </g>
</svg>